<svg version="1.0" xmlns="http://www.w3.org/2000/svg" width="933.333" height="933.333" viewBox="0 0 700 700"><path d="M343.8 144.1l-.3 144-4.6-16.3C305.4 154 229.6 84.5 116.4 67.9c-32.6-4.8-78.8-4.1-108.7 1.6-3.8.7-7 1.5-7.2 1.7-.8.8 3.5 23.6 7.1 38C24.8 177.6 61 236.8 108.4 273.9c33.6 26.3 75.7 43.8 121.6 50.5 5.8.9 19.1 2.1 29.6 2.7 20.9 1.3 46.5.3 70.7-2.8 7-.8 13-1.4 13.2-1.1.3.3.4 57.1.3 126.4l-.3 125.9-2.9-11c-31.6-120.2-109-192.9-223.4-210-33.6-5-80.6-4.2-110.7 1.8l-6 1.2.3 4c.6 7.4 6.2 33.2 10.2 46.9 5.9 20.2 13.3 38.9 23.1 58.6C78 554.9 150.9 604.4 249 613.1c22.8 2 71.7.1 91.3-3.6l3.7-.7V700h12v-91.3l3.3.7c13.9 2.8 33.1 4.1 63.2 4 34.7 0 44.1-.9 71-6.9 37.7-8.4 75.5-27 104.5-51.3 44.2-37.1 77.8-94 94.5-160 4-15.9 7.7-36.4 6.7-37.4-.9-.8-15-3.2-29.2-5-13.3-1.6-61-1.6-74.5 0-65.9 8-117.1 30.9-158.4 70.7-34.1 32.8-60.2 78.8-75.1 132.2-2.3 8.1-4.6 15.9-5 17.3-.5 1.4-.9-54.3-.9-123.8-.1-121.2 0-126.2 1.7-126.2 1 0 6.8.7 12.9 1.5 41.1 5.4 84.9 3.9 121.3-4.1 37.4-8.3 73.5-25.5 102.9-49.2 45.3-36.3 80.7-95.3 97.5-162 3.6-14.4 7.9-37.2 7.1-38-1.8-1.8-28.6-5.1-50.3-6.2-71.4-3.5-138 14.5-186.5 50.2-24.6 18.2-42.3 36.9-60.1 63.6-18.7 28.2-33.5 62.1-43.7 100.7l-2.4 9-.3-144.3L356 0h-12l-.2 144.1z"/></svg>