<svg id="BACKGROUND_2" data-name="BACKGROUND 2" xmlns="http://www.w3.org/2000/svg" width="750" height="500"><defs><clipPath id="clip-path"><path class="cls-1" d="M166.67 0h83.34v83.33h-83.34z"/></clipPath><clipPath id="clip-path-2"><path class="cls-1" d="M250 0h83.34v83.33H250z"/></clipPath><clipPath id="clip-path-3"><path class="cls-1" d="M666.7 333.34h83.33v83.34H666.7z"/></clipPath><clipPath id="clip-path-4"><path class="cls-1" d="M666.7 416.67h83.33v83.34H666.7z"/></clipPath><clipPath id="clip-path-5"><path class="cls-1" d="M583.36 333.34h83.33v83.34h-83.33z"/></clipPath><clipPath id="clip-path-6"><path class="cls-1" d="M583.36 416.67h83.33v83.34h-83.33z"/></clipPath><clipPath id="clip-path-7"><path class="cls-1" d="M0 166.66h83.33V250H0z"/></clipPath><clipPath id="clip-path-8"><path class="cls-1" d="M0 250h83.33v83.34H0z"/></clipPath><clipPath id="clip-path-9"><path class="cls-1" d="M83.34 250h83.33v83.34H83.34z"/></clipPath><clipPath id="clip-path-10"><path class="cls-1" d="M83.34 166.66h83.33V250H83.34z"/></clipPath><clipPath id="clip-path-11"><path class="cls-1" d="M416.68 0h27.78v27.78h-27.78z"/></clipPath><clipPath id="clip-path-12"><path class="cls-1" d="M444.46 0h27.78v27.78h-27.78z"/></clipPath><clipPath id="clip-path-13"><path class="cls-1" d="M472.24 0h27.78v27.78h-27.78z"/></clipPath><clipPath id="clip-path-14"><path class="cls-1" d="M416.68 27.68h27.78v27.78h-27.78z"/></clipPath><clipPath id="clip-path-15"><path class="cls-1" d="M444.46 27.68h27.78v27.78h-27.78z"/></clipPath><clipPath id="clip-path-16"><path class="cls-1" d="M472.24 27.68h27.78v27.78h-27.78z"/></clipPath><clipPath id="clip-path-17"><path class="cls-1" d="M416.68 55.37h27.78v27.78h-27.78z"/></clipPath><clipPath id="clip-path-18"><path class="cls-1" d="M444.46 55.37h27.78v27.78h-27.78z"/></clipPath><clipPath id="clip-path-19"><path class="cls-1" d="M472.24 55.37h27.78v27.78h-27.78z"/></clipPath><clipPath id="clip-path-20"><path class="cls-1" d="M333.35 333.34h27.78v27.78h-27.78z"/></clipPath><clipPath id="clip-path-21"><path class="cls-1" d="M361.12 333.34h27.78v27.78h-27.78z"/></clipPath><clipPath id="clip-path-22"><path class="cls-1" d="M388.9 333.34h27.78v27.78H388.9z"/></clipPath><clipPath id="clip-path-23"><path class="cls-1" d="M333.35 361.03h27.78v27.78h-27.78z"/></clipPath><clipPath id="clip-path-24"><path class="cls-1" d="M361.12 361.03h27.78v27.78h-27.78z"/></clipPath><clipPath id="clip-path-25"><path class="cls-1" d="M388.9 361.03h27.78v27.78H388.9z"/></clipPath><clipPath id="clip-path-26"><path class="cls-1" d="M333.35 388.71h27.78v27.78h-27.78z"/></clipPath><clipPath id="clip-path-27"><path class="cls-1" d="M361.12 388.71h27.78v27.78h-27.78z"/></clipPath><clipPath id="clip-path-28"><path class="cls-1" d="M388.9 388.71h27.78v27.78H388.9z"/></clipPath><clipPath id="clip-path-29"><path class="cls-1" d="M583.35 166.67h27.78v27.78h-27.78z"/></clipPath><clipPath id="clip-path-30"><path class="cls-1" d="M611.13 166.67h27.78v27.78h-27.78z"/></clipPath><clipPath id="clip-path-31"><path class="cls-1" d="M638.91 166.67h27.78v27.78h-27.78z"/></clipPath><clipPath id="clip-path-32"><path class="cls-1" d="M583.35 194.35h27.78v27.78h-27.78z"/></clipPath><clipPath id="clip-path-33"><path class="cls-1" d="M611.13 194.35h27.78v27.78h-27.78z"/></clipPath><clipPath id="clip-path-34"><path class="cls-1" d="M638.91 194.35h27.78v27.78h-27.78z"/></clipPath><clipPath id="clip-path-35"><path class="cls-1" d="M583.35 222.04h27.78v27.78h-27.78z"/></clipPath><clipPath id="clip-path-36"><path class="cls-1" d="M611.13 222.04h27.78v27.78h-27.78z"/></clipPath><clipPath id="clip-path-37"><path class="cls-1" d="M638.91 222.04h27.78v27.78h-27.78z"/></clipPath><clipPath id="clip-path-38"><path class="cls-1" d="M583.35 0h83.34v41.76h-83.34z"/></clipPath><clipPath id="clip-path-39"><path class="cls-1" d="M333.34 83.34h41.67v41.67h-41.67z"/></clipPath><clipPath id="clip-path-40"><path class="cls-1" d="M375.01 83.34h41.67v41.67h-41.67z"/></clipPath><clipPath id="clip-path-41"><path class="cls-1" d="M375.01 125h41.67v41.67h-41.67z"/></clipPath><clipPath id="clip-path-42"><path class="cls-1" d="M333.34 125h41.67v41.67h-41.67z"/></clipPath><clipPath id="clip-path-43"><path class="cls-1" d="M249.99 416.68h41.67v41.67h-41.67z"/></clipPath><clipPath id="clip-path-44"><path class="cls-1" d="M291.66 416.68h41.67v41.67h-41.67z"/></clipPath><clipPath id="clip-path-45"><path class="cls-1" d="M291.66 458.34h41.67v41.67h-41.67z"/></clipPath><clipPath id="clip-path-46"><path class="cls-1" d="M249.99 458.34h41.67v41.67h-41.67z"/></clipPath><clipPath id="clip-path-47"><path class="cls-2" d="M416.68 83.33h83.34v83.33h-83.34z"/></clipPath><clipPath id="clip-path-48"><path class="cls-3" d="M166.67 250.01h83.34v83.33h-83.34z"/></clipPath><clipPath id="clip-path-49"><path class="cls-1" d="M500.02 125h83.34v41.66h-83.34z"/></clipPath><clipPath id="clip-path-50"><path class="cls-1" d="M166.67 375.01h83.34v41.66h-83.34z"/></clipPath><clipPath id="clip-path-51"><path class="cls-1" d="M583.35 83.33h83.34v83.33h-83.34z"/></clipPath><clipPath id="clip-path-52"><path class="cls-1" d="M500.02 333.34h83.34v83.33h-83.34z"/></clipPath><clipPath id="clip-path-53"><path class="cls-1" d="M666.69 166.67h83.34V250h-83.34z"/></clipPath><clipPath id="clip-path-54"><path class="cls-1" d="M41.67 416.68h41.67v41.7H41.67z"/></clipPath><clipPath id="clip-path-55"><path class="cls-1" d="M28.72 418.31h72v72h-72z"/></clipPath><clipPath id="clip-path-56"><path class="cls-1" d="M28.72 346.31h72v72h-72z"/></clipPath><clipPath id="clip-path-57"><path class="cls-1" d="M0 416.67h83.33v83.34H0z"/></clipPath><pattern id="_10_lpi_40_11" data-name="10 lpi 40% 11" width="72" height="72" patternTransform="translate(-432)" patternUnits="userSpaceOnUse"><path class="cls-1" d="M0 0h72v72H0z"/><path class="cls-4" d="M71.75 68.4h72.5M71.75 54h72.5m-72.5-14.4h72.5m-72.5-14.4h72.5m-72.5-14.4h72.5m-72.5 50.4h72.5m-72.5-14.4h72.5m-72.5-14.4h72.5M71.75 18h72.5M71.75 3.6h72.5M-.25 68.4h72.5M-.25 54h72.5M-.25 39.6h72.5M-.25 25.2h72.5M-.25 10.8h72.5M-.25 61.2h72.5M-.25 46.8h72.5M-.25 32.4h72.5M-.25 18h72.5M-.25 3.6h72.5m-144.5 64.8H.25M-72.25 54H.25m-72.5-14.4H.25m-72.5-14.4H.25m-72.5-14.4H.25m-72.5 50.4H.25m-72.5-14.4H.25m-72.5-14.4H.25M-72.25 18H.25m-72.5-14.4H.25"/></pattern><pattern id="_6_dpi_20_4" data-name="6 dpi 20% 4" width="48" height="48" patternTransform="translate(-384)" patternUnits="userSpaceOnUse"><path class="cls-1" d="M0 0h48v48H0z"/><circle class="cls-7" cx="24" cy="48" r="2.4"/><circle class="cls-7" cx="48" cy="48" r="2.4"/><circle class="cls-7" cx="24" cy="24" r="2.4"/><circle class="cls-7" cx="48" cy="24" r="2.4"/><circle class="cls-7" cx="36" cy="36" r="2.4"/><circle class="cls-7" cx="12" cy="36" r="2.4"/><circle class="cls-7" cx="36" cy="12" r="2.4"/><circle class="cls-7" cx="12" cy="12" r="2.4"/><circle class="cls-7" cy="48" r="2.4"/><circle class="cls-7" cy="24" r="2.4"/><circle class="cls-7" cx="24" r="2.4"/><circle class="cls-7" cx="48" r="2.4"/><circle class="cls-7" r="2.4"/></pattern><pattern id="_6_dpi_20_2" data-name="6 dpi 20% 2" width="48" height="48" patternTransform="translate(-384)" patternUnits="userSpaceOnUse"><path class="cls-1" d="M0 0h48v48H0z"/><circle class="cls-6" cx="24" cy="48" r="2.4"/><circle class="cls-6" cx="48" cy="48" r="2.4"/><circle class="cls-6" cx="24" cy="24" r="2.4"/><circle class="cls-6" cx="48" cy="24" r="2.4"/><circle class="cls-6" cx="36" cy="36" r="2.4"/><circle class="cls-6" cx="12" cy="36" r="2.4"/><circle class="cls-6" cx="36" cy="12" r="2.4"/><circle class="cls-6" cx="12" cy="12" r="2.4"/><circle class="cls-6" cy="48" r="2.4"/><circle class="cls-6" cy="24" r="2.4"/><circle class="cls-6" cx="24" r="2.4"/><circle class="cls-6" cx="48" r="2.4"/><circle class="cls-6" r="2.4"/></pattern><pattern id="_10_lpi_40_12" data-name="10 lpi 40% 12" width="72" height="72" patternTransform="translate(-432)" patternUnits="userSpaceOnUse"><path class="cls-1" d="M0 0h72v72H0z"/><path d="M71.75 68.4h72.5M71.75 54h72.5m-72.5-14.4h72.5m-72.5-14.4h72.5m-72.5-14.4h72.5m-72.5 50.4h72.5m-72.5-14.4h72.5m-72.5-14.4h72.5M71.75 18h72.5M71.75 3.6h72.5M-.25 68.4h72.5M-.25 54h72.5M-.25 39.6h72.5M-.25 25.2h72.5M-.25 10.8h72.5M-.25 61.2h72.5M-.25 46.8h72.5M-.25 32.4h72.5M-.25 18h72.5M-.25 3.6h72.5m-144.5 64.8H.25M-72.25 54H.25m-72.5-14.4H.25m-72.5-14.4H.25m-72.5-14.4H.25m-72.5 50.4H.25m-72.5-14.4H.25m-72.5-14.4H.25M-72.25 18H.25m-72.5-14.4H.25" stroke="#ee2a2e" stroke-width="2.88" fill="none"/></pattern><style>.cls-1,.cls-4{fill:none}.cls-2{fill:#00599b}.cls-3{fill:#cbcbbf}.cls-4{stroke:#fff9df;stroke-width:2.88px}.cls-6{fill:#ee2a2e}.cls-7{fill:#fff9df}.cls-8{fill:#030f4b}.cls-9{fill:url(#_10_lpi_40_11)}.cls-64{fill:url(#_10_lpi_40_12)}</style></defs><path class="cls-8" d="M0 0h83.34v83.33H0z"/><circle class="cls-7" cx="41.67" cy="41.67" r="41.67"/><path class="cls-2" d="M0 0h41.67v83.33H0z"/><path class="cls-9" d="M0 0h41.67v83.33H0z"/><path class="cls-6" d="M41.67 83.33L83.33 125l-41.66 41.66L0 125l41.67-41.67H0v83.34h83.34V83.33H41.67z"/><path class="cls-8" d="M41.67 123.75l41.66 21.46-41.66 21.46L0 145.21l41.67-21.46H0v42.92h83.34v-42.92H41.67z"/><path class="cls-7" d="M41.67 83.33zm0 83.33L83.33 125 41.67 83.33 0 125l41.67 41.66z"/><path class="cls-8" transform="rotate(-45 41.676 124.997)" d="M16.43 99.76H66.9v50.47H16.43z"/><path class="cls-3" transform="rotate(-45 41.676 124.997)" d="M20.49 103.82h42.36v42.37H20.49z"/><path class="cls-6" d="M541.68 166.67l41.67 41.67L541.68 250l-41.66-41.66 41.66-41.67h-41.66V250h83.33v-83.33h-41.67z"/><path class="cls-8" d="M541.68 207.08l41.67 21.46L541.68 250l-41.66-21.46 41.66-21.46h-41.66V250h83.33v-42.92h-41.67z"/><path class="cls-7" d="M541.68 250l41.67-41.66-41.67-41.67-41.66 41.67L541.68 250z"/><path class="cls-8" transform="rotate(-45 541.698 208.341)" d="M516.45 183.1h50.47v50.47h-50.47z"/><path class="cls-3" transform="rotate(-45 541.686 208.336)" d="M520.5 187.15h42.36v42.37H520.5z"/><path class="cls-8" d="M166.67 375.01l-41.66-41.67-41.67 41.67 41.67 41.66 41.66-41.66v41.67H83.34v-83.34h83.33v41.67z"/><path class="cls-3" d="M126.26 375.01l-21.46-41.67-21.46 41.67 21.46 41.66 21.46-41.66v41.67H83.34v-83.34h42.92v41.67z"/><path class="cls-6" d="M83.34 375.01l41.67-41.67 41.66 41.67-41.66 41.66-41.67-41.66z"/><path class="cls-3" transform="rotate(-45 125.01 375)" d="M99.77 349.77h50.47v50.47H99.77z"/><path class="cls-7" transform="rotate(-45 125.01 375)" d="M103.83 353.83h42.36v42.37h-42.36z"/><path class="cls-8" d="M541.69 333.33l41.67-41.66L541.69 250l-41.67 41.67 41.67 41.66h-41.67V250h83.34v83.33h-41.67z"/><path class="cls-3" d="M541.69 292.92l41.67-21.46L541.69 250l-41.67 21.46 41.67 21.46h-41.67V250h83.34v42.92h-41.67z"/><path class="cls-6" d="M541.69 250l41.67 41.67-41.67 41.66-41.67-41.66L541.69 250z"/><path class="cls-3" transform="rotate(-45 541.674 291.671)" d="M516.45 266.43h50.47v50.47h-50.47z"/><path class="cls-7" transform="rotate(-45 541.674 291.671)" d="M520.51 270.49h42.37v42.36h-42.37z"/><path class="cls-6" d="M333.33 416.68h83.34v83.33h-83.34z"/><path class="cls-8" d="M333.33 416.68v83.33h83.34"/><path class="cls-3" d="M666.69 250.01h83.34v83.33h-83.34z"/><path class="cls-6" d="M666.69 250.01v83.33h83.34"/><path class="cls-2" d="M166.67 0h83.34v83.33h-83.34z"/><g clip-path="url(#clip-path)"><circle class="cls-7" cx="250.01" r="41.67"/><circle class="cls-7" cx="166.67" cy="83.33" r="41.67" transform="rotate(-4.76 166.809 83.456)"/><path class="cls-8" d="M192.82 83.33a26.15 26.15 0 11-26.15-26.15 26.15 26.15 0 0126.15 26.15z"/></g><path class="cls-7" d="M250 0h83.34v83.33H250z"/><g clip-path="url(#clip-path-2)"><path class="cls-6" d="M208.34 0A41.67 41.67 0 00250 41.67 41.67 41.67 0 00291.67 0 41.67 41.67 0 00250-41.67 41.67 41.67 0 00208.34 0z"/><path class="cls-8" d="M291.67 83.33a41.67 41.67 0 1041.67-41.67 41.67 41.67 0 00-41.67 41.67z"/><path class="cls-7" d="M301.18 83.33a32.16 32.16 0 1032.16-32.16 32.16 32.16 0 00-32.16 32.16z"/></g><path class="cls-2" d="M666.7 333.34h83.33v83.34H666.7z"/><g clip-path="url(#clip-path-3)"><circle class="cls-3" cx="750.03" cy="416.68" r="41.67"/><circle class="cls-7" cx="666.7" cy="333.34" r="41.67" transform="rotate(-.52 667.313 333.585)"/></g><path class="cls-7" d="M666.7 416.67h83.33v83.34H666.7z"/><g clip-path="url(#clip-path-4)"><path class="cls-6" d="M750 375a41.67 41.67 0 1041.67 41.66A41.67 41.67 0 00750 375z"/><path class="cls-8" d="M666.7 458.34A41.67 41.67 0 10708.36 500a41.67 41.67 0 00-41.66-41.66z"/><path class="cls-7" d="M666.7 467.85A32.16 32.16 0 10698.86 500a32.16 32.16 0 00-32.16-32.15z"/></g><path class="cls-7" d="M583.36 333.34h83.33v83.34h-83.33z"/><g clip-path="url(#clip-path-5)"><path class="cls-6" d="M583.36 458.34a41.67 41.67 0 10-41.67-41.66 41.67 41.67 0 0041.67 41.66zM666.69 375A41.67 41.67 0 10625 333.34 41.67 41.67 0 00666.69 375z"/></g><path class="cls-3" d="M583.36 416.67h83.33v83.34h-83.33z"/><g clip-path="url(#clip-path-6)"><path class="cls-8" d="M583.36 375a41.67 41.67 0 11-41.67 41.66A41.67 41.67 0 01583.36 375z"/><path class="cls-2" d="M666.69 458.34A41.67 41.67 0 11625 500a41.67 41.67 0 0141.69-41.66z"/><path class="cls-7" d="M666.69 467.85A32.16 32.16 0 11634.53 500a32.16 32.16 0 0132.16-32.15z"/></g><path class="cls-7" d="M0 166.66h83.33V250H0z"/><g clip-path="url(#clip-path-7)"><circle class="cls-6" cx="83.34" cy="250" r="41.67" transform="rotate(-85.92 83.332 249.996)"/><circle class="cls-6" cy="166.67" r="41.67"/></g><path class="cls-6" d="M0 250h83.33v83.34H0z"/><g clip-path="url(#clip-path-8)"><path class="cls-8" d="M83.34 208.33A41.67 41.67 0 10125 250a41.67 41.67 0 00-41.66-41.67z"/><path class="cls-2" d="M0 291.67A41.67 41.67 0 100 375a41.67 41.67 0 100-83.34z"/><path class="cls-6" d="M0 301.18a32.16 32.16 0 100 64.32 32.16 32.16 0 0032.16-32.16A32.16 32.16 0 000 301.18z"/></g><path class="cls-7" d="M83.34 250h83.33v83.34H83.34z"/><g clip-path="url(#clip-path-9)"><circle class="cls-2" cx="83.34" cy="250" r="41.67" transform="rotate(-9.2 83.341 249.949)"/><circle class="cls-3" cx="166.67" cy="333.34" r="41.67" transform="rotate(-1.59 166.215 332.43)"/></g><path class="cls-3" d="M83.34 166.66h83.33V250H83.34z"/><g clip-path="url(#clip-path-10)"><path class="cls-7" d="M83.34 291.67A41.67 41.67 0 1041.67 250a41.67 41.67 0 0041.67 41.67z"/><path class="cls-2" d="M166.67 208.34A41.67 41.67 0 10125 166.66a41.68 41.68 0 0041.67 41.68z"/><path class="cls-6" d="M166.67 198.83a32.17 32.17 0 10-32.16-32.17 32.16 32.16 0 0032.16 32.17z"/></g><path class="cls-3" d="M333.34 0h83.34v83.33h-83.34z"/><path class="cls-7" d="M333.34 83.33l20.91-41.76 20.9 41.76h-41.81zm41.81 0l20.91-41.76 20.9 41.76h-41.81zm-41.81-41.76L354.25-.19l20.9 41.76h-41.81zm41.81 0L396.06-.19l20.9 41.76h-41.81zm208.21 208.44h83.34v83.33h-83.34z"/><path class="cls-3" d="M583.54 333.34l20.85-41.67 20.86 41.67h-41.71z"/><path class="cls-8" d="M625.25 333.34l20.86-41.67 20.86 41.67h-41.72zm-41.71-41.67L604.39 250l20.86 41.67h-41.71z"/><path class="cls-3" d="M625.25 291.67L646.11 250l20.86 41.67h-41.72z"/><path class="cls-6" d="M166.67 166.67H250v83.34h-83.33z"/><path class="cls-7" d="M166.58 166.53l41.76 20.9-41.76 20.9v-41.8zm0 41.8l41.76 20.91-41.76 20.9v-41.81z"/><path class="cls-8" d="M208.34 166.53l41.76 20.9-41.76 20.9v-41.8zm0 41.8l41.76 20.91-41.76 20.9v-41.81zM416.68 0h83.34v83.33h-83.34z"/><g clip-path="url(#clip-path-11)"><path class="cls-6" d="M442.14 6.85a18.61 18.61 0 11-18.6-18.6 18.61 18.61 0 0118.6 18.6z"/></g><g clip-path="url(#clip-path-12)"><path class="cls-6" d="M469.92 6.85a18.61 18.61 0 11-18.61-18.6 18.61 18.61 0 0118.61 18.6z"/></g><g clip-path="url(#clip-path-13)"><path class="cls-6" d="M497.7 6.85a18.61 18.61 0 11-18.61-18.6 18.61 18.61 0 0118.61 18.6z"/></g><g clip-path="url(#clip-path-14)"><path class="cls-6" d="M442.14 34.54a18.61 18.61 0 11-18.6-18.61 18.61 18.61 0 0118.6 18.61z"/></g><g clip-path="url(#clip-path-15)"><path class="cls-6" d="M469.92 34.54a18.61 18.61 0 11-18.61-18.61 18.61 18.61 0 0118.61 18.61z"/></g><g clip-path="url(#clip-path-16)"><path class="cls-6" d="M497.7 34.54a18.61 18.61 0 11-18.61-18.61 18.61 18.61 0 0118.61 18.61z"/></g><g clip-path="url(#clip-path-17)"><path class="cls-6" d="M442.14 62.22a18.61 18.61 0 11-18.6-18.61 18.61 18.61 0 0118.6 18.61z"/></g><g clip-path="url(#clip-path-18)"><path class="cls-6" d="M469.92 62.22a18.61 18.61 0 11-18.61-18.61 18.61 18.61 0 0118.61 18.61z"/></g><g clip-path="url(#clip-path-19)"><path class="cls-6" d="M497.7 62.22a18.61 18.61 0 11-18.61-18.61 18.61 18.61 0 0118.61 18.61z"/></g><path class="cls-8" d="M333.35 333.34h83.34v83.33h-83.34z"/><g clip-path="url(#clip-path-20)"><circle class="cls-6" cx="340.2" cy="340.2" r="18.61"/></g><g clip-path="url(#clip-path-21)"><circle class="cls-7" cx="367.98" cy="340.2" r="18.61"/></g><g clip-path="url(#clip-path-22)"><circle class="cls-6" cx="395.76" cy="340.2" r="18.61"/></g><g clip-path="url(#clip-path-23)"><circle class="cls-6" cx="340.2" cy="367.88" r="18.61"/></g><g clip-path="url(#clip-path-24)"><circle class="cls-7" cx="367.98" cy="367.88" r="18.61"/></g><g clip-path="url(#clip-path-25)"><circle class="cls-6" cx="395.76" cy="367.88" r="18.61"/></g><g clip-path="url(#clip-path-26)"><circle class="cls-6" cx="340.2" cy="395.56" r="18.61"/></g><g clip-path="url(#clip-path-27)"><circle class="cls-7" cx="367.98" cy="395.56" r="18.61"/></g><g clip-path="url(#clip-path-28)"><circle class="cls-6" cx="395.76" cy="395.56" r="18.61"/></g><path class="cls-2" d="M583.35 166.67h83.34V250h-83.34z"/><g clip-path="url(#clip-path-29)"><path class="cls-7" d="M608.82 173.52a18.61 18.61 0 11-18.61-18.6 18.61 18.61 0 0118.61 18.6z"/></g><g clip-path="url(#clip-path-30)"><path class="cls-7" d="M636.6 173.52a18.61 18.61 0 11-18.6-18.6 18.61 18.61 0 0118.6 18.6z"/></g><g clip-path="url(#clip-path-31)"><path class="cls-7" d="M664.38 173.52a18.61 18.61 0 11-18.61-18.6 18.61 18.61 0 0118.61 18.6z"/></g><g clip-path="url(#clip-path-32)"><path class="cls-7" d="M608.82 201.21a18.61 18.61 0 11-18.61-18.61 18.61 18.61 0 0118.61 18.61z"/></g><g clip-path="url(#clip-path-33)"><path class="cls-7" d="M636.6 201.21A18.61 18.61 0 11618 182.6a18.61 18.61 0 0118.6 18.61z"/></g><g clip-path="url(#clip-path-34)"><path class="cls-7" d="M664.38 201.21a18.61 18.61 0 11-18.61-18.61 18.61 18.61 0 0118.61 18.61z"/></g><g clip-path="url(#clip-path-35)"><path class="cls-7" d="M608.82 228.89a18.61 18.61 0 11-18.61-18.6 18.61 18.61 0 0118.61 18.6z"/></g><g clip-path="url(#clip-path-36)"><path class="cls-7" d="M636.6 228.89a18.61 18.61 0 11-18.6-18.6 18.61 18.61 0 0118.6 18.6z"/></g><g clip-path="url(#clip-path-37)"><path class="cls-7" d="M664.38 228.89a18.61 18.61 0 11-18.61-18.6 18.61 18.61 0 0118.61 18.6z"/></g><path class="cls-7" d="M500.02 0h83.34v83.33h-83.34z"/><path class="cls-2" d="M500.02 83.33V41.57l82.5 41.76h-82.5z"/><path class="cls-6" d="M500.02 83.33V57.18l51.66 26.15h-51.66z"/><path class="cls-8" d="M583.35 0v41.76L500.86 0h82.49zM416.69 250.01h83.34v83.33h-83.34z"/><path class="cls-7" d="M416.69 333.34v-41.76l82.5 41.76h-82.5z"/><path class="cls-2" d="M500.03 250.01v41.76l-82.5-41.76h82.5zM166.67 416.67H250v83.34h-83.33z"/><path class="cls-8" d="M250.01 500.01h-41.76l41.76-82.5v82.5z"/><path class="cls-7" d="M166.68 416.67h41.75l-41.75 82.5v-82.5z"/><path class="cls-6" d="M166.68 416.67h21.06l-21.06 41.62v-41.62z"/><path class="cls-8" d="M500.02 416.68h83.33v83.34h-83.33z"/><path class="cls-9" d="M500.02 416.68h83.33v83.34h-83.33z"/><path class="cls-7" d="M500.02 416.68h41.76l-41.76 82.49v-82.49z"/><path class="cls-6" d="M583.35 500.01h-41.76l41.76-82.5v82.5z"/><path class="cls-7" d="M250.01 166.67h83.33v83.34h-83.33z"/><path class="cls-3" d="M250.01 166.67h41.76l-41.76 82.5v-82.5z"/><path class="cls-8" d="M333.34 250h-41.76l41.76-82.49V250z"/><path class="cls-9" d="M333.34 250h-41.76l41.76-82.49V250z"/><path class="cls-6" d="M666.69 0h83.34v83.33h-83.34z"/><path fill="url(#_6_dpi_20_4)" d="M666.69 0h83.34v83.33h-83.34z"/><path class="cls-2" d="M666.69 0h83.34v41.76h-83.34z"/><path class="cls-9" d="M666.69 0h83.34v41.76h-83.34z"/><path class="cls-7" d="M583.35 0h83.34v83.33h-83.34z"/><path fill="url(#_6_dpi_20_2)" d="M583.35 0h83.34v83.33h-83.34z"/><path class="cls-3" d="M583.35 0h83.34v41.76h-83.34z"/><g clip-path="url(#clip-path-38)"><circle class="cls-2" cx="625.02" cy="-4.76" r="41.67"/></g><path class="cls-3" d="M83.34 83.33h83.34v83.33H83.34z"/><path class="cls-2" d="M125 166.66h41.63L145.82 125 125 166.66zm-41.62 0H125L104.19 125l-20.81 41.66z"/><path class="cls-7" d="M83.38 83.33L104.19 125 125 83.33H83.38zm83.25 0H125L145.82 125l20.81-41.67z"/><path class="cls-6" d="M125 83.33L104.19 125 125 166.66 145.82 125 125 83.33z"/><path class="cls-3" d="M666.69 83.33h83.34v83.33h-83.34z"/><path class="cls-7" d="M708.36 166.66h41.62L729.17 125l-20.81 41.66zm-41.62 0h41.62L687.55 125l-20.81 41.66z"/><path class="cls-8" d="M666.74 83.33L687.55 125l20.81-41.67h-41.62zm83.24 0h-41.62L729.17 125l20.81-41.67z"/><path class="cls-2" d="M708.36 83.33L687.55 125l20.81 41.66L729.17 125l-20.81-41.67z"/><path class="cls-7" d="M166.67 83.33h83.34v83.33h-83.34z"/><path class="cls-6" d="M166.65 91.78s3.45 36.18 41.69 29.86z"/><path class="cls-8" d="M166.65 91.78s35.35-8.38 41.69 29.86z"/><path class="cls-6" d="M250 91.78s-3.45 36.18-41.69 29.86z"/><path class="cls-8" d="M250 91.78s-35.36-8.38-41.69 29.86z"/><path class="cls-6" d="M166.65 125.89s3.45 36.18 41.69 29.86z"/><path class="cls-8" d="M166.65 125.89s35.36-8.38 41.69 29.86z"/><path class="cls-6" d="M250 125.89s-3.45 36.18-41.69 29.86z"/><path class="cls-8" d="M250 125.89s-35.36-8.38-41.69 29.86z"/><path class="cls-8" d="M207.58 83.33h1.52v83.33h-1.52z"/><path class="cls-2" d="M0 333.34h83.34v83.33H0z"/><path class="cls-8" d="M0 341.79S3.43 378 41.67 371.64z"/><path class="cls-7" d="M0 341.79s35.36-8.39 41.69 29.85z"/><path class="cls-8" d="M83.36 341.79S79.91 378 41.67 371.64z"/><path class="cls-7" d="M83.36 341.79S48 333.4 41.67 371.64z"/><path class="cls-8" d="M0 375.9s3.45 36.18 41.69 29.85z"/><path class="cls-7" d="M0 375.9s35.36-8.39 41.69 29.85z"/><path class="cls-8" d="M83.36 375.9s-3.45 36.18-41.69 29.85z"/><path class="cls-7" d="M83.36 375.9S48 367.51 41.67 405.75z"/><path class="cls-7" d="M40.91 333.34h1.52v83.33h-1.52zm375.78-166.67h83.34V250h-83.34z"/><path class="cls-6" d="M416.67 175.12s3.45 36.18 41.69 29.85z"/><path class="cls-8" d="M416.67 175.12S452 166.73 458.36 205z"/><path class="cls-6" d="M500.05 175.12S496.6 211.3 458.36 205z"/><path class="cls-8" d="M500.05 175.12s-35.36-8.39-41.69 29.85z"/><path class="cls-6" d="M416.67 209.23s3.45 36.18 41.69 29.85z"/><path class="cls-8" d="M416.67 209.23s35.36-8.39 41.69 29.85z"/><path class="cls-6" d="M500.05 209.23s-3.45 36.18-41.69 29.85z"/><path class="cls-8" d="M500.05 209.23s-35.36-8.39-41.69 29.85z"/><path class="cls-8" d="M457.6 166.67h1.52V250h-1.52zM250 83.34h83.34v83.33H250z"/><path class="cls-9" d="M250.01 83.33h83.33V125h-83.33z"/><path class="cls-6" d="M250 125h41.67v41.67H250z"/><path class="cls-2" d="M250 83.33h41.67V125H250zm416.69 83.34h83.34V250h-83.34z"/><path class="cls-8" d="M666.69 208.34h41.67v41.67h-41.67z"/><path class="cls-7" d="M666.69 166.67h41.67v41.67h-41.67z"/><path class="cls-6" d="M333.34 83.34h83.34v83.33h-83.34z"/><g clip-path="url(#clip-path-39)"><path class="cls-8" d="M333.55 83.54s-2.86 41.3 41.29 41.3z"/><path class="cls-7" d="M333.54 83.54s41.3-2.85 41.3 41.3z"/></g><g clip-path="url(#clip-path-40)"><path class="cls-8" d="M416.47 83.54s2.86 41.3-41.29 41.3z"/><path class="cls-7" d="M416.48 83.54s-41.3-2.85-41.3 41.3z"/></g><g clip-path="url(#clip-path-41)"><path class="cls-8" d="M416.47 166.47s2.86-41.3-41.29-41.3z"/><path class="cls-7" d="M416.48 166.47s-41.3 2.85-41.3-41.3z"/></g><g clip-path="url(#clip-path-42)"><path class="cls-8" d="M333.55 166.47s-2.86-41.3 41.29-41.3z"/><path class="cls-7" d="M333.54 166.47s41.3 2.85 41.3-41.3z"/></g><path class="cls-2" d="M249.99 416.68h83.34v83.33h-83.34z"/><g clip-path="url(#clip-path-43)"><path class="cls-6" d="M250.2 416.88s-2.86 41.3 41.3 41.3z"/><path class="cls-8" d="M250.2 416.88s41.29-2.85 41.29 41.3z"/></g><g clip-path="url(#clip-path-44)"><path class="cls-6" d="M333.13 416.88s2.85 41.3-41.3 41.3z"/><path class="cls-7" d="M333.13 416.88s-41.3-2.85-41.3 41.3z"/></g><g clip-path="url(#clip-path-45)"><path class="cls-6" d="M333.13 499.8s2.85-41.29-41.3-41.29z"/><path class="cls-8" d="M333.13 499.8s-41.3 2.86-41.3-41.29z"/></g><g clip-path="url(#clip-path-46)"><path class="cls-6" d="M250.2 499.8s-2.86-41.29 41.3-41.29z"/><path class="cls-7" d="M250.2 499.8s41.29 2.86 41.29-41.29z"/></g><path class="cls-2" d="M416.68 83.33h83.34v83.33h-83.34z"/><g clip-path="url(#clip-path-47)"><path class="cls-2" d="M458.35 83.33L500.01 125l-41.66 41.66L416.68 125l41.67-41.67h-41.67v83.34h83.34V83.33h-41.67z"/><path class="cls-7" d="M458.35 195.24L528.59 125l-70.24-70.24h-.01L388.11 125l70.24 70.24z"/><path class="cls-8" transform="rotate(-45 458.345 124.997)" d="M415.81 82.46h85.08v85.08h-85.08z"/><path class="cls-2" transform="rotate(-45 458.345 124.997)" d="M422.64 89.29h71.42v71.42h-71.42z"/><path class="cls-6" transform="rotate(-45 458.358 125.002)" d="M428.88 95.54h58.92v58.93h-58.92z"/><path class="cls-7" transform="rotate(-45 458.358 125.002)" d="M436.08 102.73h44.53v44.53h-44.53z"/><path class="cls-3" transform="rotate(-45 458.358 125.002)" d="M443.66 110.31h29.38v29.38h-29.38z"/></g><path class="cls-3" d="M166.67 250.01h83.34v83.33h-83.34z"/><g clip-path="url(#clip-path-48)"><path class="cls-3" d="M208.34 250.01l41.67 41.66-41.67 41.67-41.67-41.67 41.67-41.66h-41.67v83.33h83.34v-83.33h-41.67z"/><path class="cls-6" d="M208.34 361.91l70.24-70.24-70.24-70.24-70.24 70.24 70.24 70.24z"/><path class="cls-2" transform="rotate(-45 208.344 291.671)" d="M165.8 249.13h85.08v85.08H165.8z"/><path class="cls-3" transform="rotate(-45 208.344 291.671)" d="M172.63 255.96h71.42v71.42h-71.42z"/><path class="cls-8" transform="rotate(-45 208.344 291.671)" d="M178.88 262.21h58.92v58.93h-58.92z"/><path class="cls-6" transform="rotate(-45 208.344 291.671)" d="M186.07 269.4h44.53v44.53h-44.53z"/><path class="cls-7" transform="rotate(-45 208.344 291.671)" d="M193.65 276.98h29.38v29.38h-29.38z"/></g><path class="cls-7" d="M500.02 83.33h83.34v83.33h-83.34z"/><circle class="cls-3" cx="541.48" cy="124.79" r="41.46" transform="rotate(-82.26 541.443 124.81)"/><circle class="cls-9" cx="541.48" cy="124.79" r="41.46" transform="rotate(-82.26 541.443 124.81)"/><g clip-path="url(#clip-path-49)"><circle class="cls-3" cx="541.48" cy="124.79" r="41.46" transform="rotate(-82.26 541.443 124.81)"/></g><path class="cls-7" d="M166.67 333.34h83.34v83.33h-83.34z"/><path class="cls-3" d="M249.59 374.8a41.46 41.46 0 11-41.46-41.46 41.46 41.46 0 0141.46 41.46z"/><path class="cls-9" d="M249.59 374.8a41.46 41.46 0 11-41.46-41.46 41.46 41.46 0 0141.46 41.46z"/><g clip-path="url(#clip-path-50)"><path class="cls-3" d="M249.59 374.8a41.46 41.46 0 11-41.46-41.46 41.46 41.46 0 0141.46 41.46z"/></g><g clip-path="url(#clip-path-51)"><path class="cls-2" d="M583.35 83.33h83.34v83.33h-83.34z"/><path class="cls-7" d="M587.23 166.67l37.79-65.45 37.79 65.45h-75.58z"/><path class="cls-3" d="M587.23 184.85l37.79-65.45 37.79 65.45h-75.58z"/><path class="cls-8" d="M587.23 199.4l37.79-65.46 37.79 65.46h-75.58z"/></g><g clip-path="url(#clip-path-52)"><path class="cls-3" d="M500.02 333.34h83.34v83.33h-83.34z"/><path class="cls-8" d="M503.89 416.68l37.79-65.46 37.8 65.46h-75.59z"/><path class="cls-7" d="M503.89 434.86l37.79-65.45 37.8 65.45h-75.59z"/><path class="cls-2" d="M503.89 449.4l37.79-65.45 37.8 65.45h-75.59z"/></g><path class="cls-2" d="M333.34 166.67h83.33v83.34h-83.33z"/><path class="cls-6" d="M333.34 250h41.76l-41.76-82.49V250z"/><path class="cls-9" d="M333.34 250h41.76l-41.76-82.49V250z"/><path class="cls-3" d="M416.67 166.67h-41.76l41.76 82.5v-82.5z"/><path class="cls-64" d="M666.7 166.67h41.69v41.67H666.7z"/><g clip-path="url(#clip-path-53)"><path class="cls-7" d="M795.55 208.82a41.32 41.32 0 11-41.32-41.31 41.32 41.32 0 0141.32 41.31z"/></g><path class="cls-2" d="M250.01 250.01h83.34v83.33h-83.34z"/><path class="cls-7" d="M333.34 291.67A41.67 41.67 0 11291.68 250a41.67 41.67 0 0141.66 41.67z"/><path class="cls-2" d="M250.01 250.01h41.67v83.33h-41.67z"/><path class="cls-3" d="M333.35 250.01h83.34v83.33h-83.34z"/><path class="cls-6" d="M333.35 250.01v83.33h83.33"/><path class="cls-2" d="M333.35 285.32v48.02h48.01"/><path class="cls-3" d="M83.34 0h83.34v83.33H83.34z"/><path class="cls-6" d="M83.34 0v83.33h83.33"/><path class="cls-7" d="M97.23 13.89v55.55h55.55"/><path class="cls-2" d="M416.7 333.25h83.34v83.33H416.7z"/><path class="cls-6" d="M500.03 416.58v-83.33H416.7"/><path class="cls-7" d="M486.14 402.69v-55.55h-55.56"/><path class="cls-8" d="M476.59 393.14v-36.45h-36.46"/><path class="cls-6" d="M270.57 250.14s44.42 38.79-.12 83.2z"/><path class="cls-8" d="M270.57 250.14s-44.53 38.66-.12 83.2z"/><path class="cls-7" d="M416.67 416.68h83.34v83.33h-83.34z"/><path class="cls-6" d="M500 458.34a41.67 41.67 0 11-41.66-41.66A41.67 41.67 0 01500 458.34z"/><path class="cls-3" d="M416.67 416.68h41.67v83.33h-41.67z"/><path class="cls-8" d="M437.23 416.81s44.42 38.79-.12 83.2z"/><path class="cls-2" d="M437.23 416.81s-44.53 38.66-.12 83.2z"/><path class="cls-7" d="M83.34 416.67h83.33v83.34H83.34z"/><path class="cls-6" d="M83.34 458.34v41.62l41.67-20.81-41.67-20.81zm0-41.63v41.63l41.67-20.81-41.67-20.82z"/><path class="cls-2" d="M166.68 416.71l-41.67 20.82 41.67 20.81v-41.63zm0 83.25v-41.62l-41.67 20.81 41.67 20.81z"/><path class="cls-3" d="M166.68 458.34l-41.67-20.81-41.67 20.81 41.67 20.81 41.67-20.81zM0 416.67h83.33v83.34H0z"/><path class="cls-8" d="M0 416.67h41.67v41.67H0z"/><path class="cls-7" d="M9.97 427.51h19.94v19.94H9.97z"/><path class="cls-8" d="M41.67 416.67h41.67v41.67H41.67z"/><g clip-path="url(#clip-path-54)"><g clip-path="url(#clip-path-55)"><path class="cls-4" d="M32.32 490.06v72.5m14.4-72.5v72.5m14.4-72.5v72.5m14.4-72.5v72.5m14.4-72.5v72.5m-50.4-72.5v72.5m14.4-72.5v72.5m14.4-72.5v72.5m14.4-72.5v72.5m14.4-72.5v72.5m-64.8-144.5v72.5m14.4-72.5v72.5m14.4-72.5v72.5m14.4-72.5v72.5m14.4-72.5v72.5m-50.4-72.5v72.5m14.4-72.5v72.5m14.4-72.5v72.5m14.4-72.5v72.5m14.4-72.5v72.5m-64.8-144.5v72.5m14.4-72.5v72.5m14.4-72.5v72.5m14.4-72.5v72.5m14.4-72.5v72.5m-50.4-72.5v72.5m14.4-72.5v72.5m14.4-72.5v72.5m14.4-72.5v72.5m14.4-72.5v72.5"/></g><g clip-path="url(#clip-path-56)"><path class="cls-4" d="M32.32 418.06v72.5m14.4-72.5v72.5m14.4-72.5v72.5m14.4-72.5v72.5m14.4-72.5v72.5m-50.4-72.5v72.5m14.4-72.5v72.5m14.4-72.5v72.5m14.4-72.5v72.5m14.4-72.5v72.5m-64.8-144.5v72.5m14.4-72.5v72.5m14.4-72.5v72.5m14.4-72.5v72.5m14.4-72.5v72.5m-50.4-72.5v72.5m14.4-72.5v72.5m14.4-72.5v72.5m14.4-72.5v72.5m14.4-72.5v72.5m-64.8-144.5v72.5m14.4-72.5v72.5m14.4-72.5v72.5m14.4-72.5v72.5m14.4-72.5v72.5m-50.4-72.5v72.5m14.4-72.5v72.5m14.4-72.5v72.5m14.4-72.5v72.5m14.4-72.5v72.5"/></g></g><g clip-path="url(#clip-path-57)"><path class="cls-6" d="M41.18 545.53a41.32 41.32 0 1141.32-41.32 41.31 41.31 0 01-41.32 41.32z"/></g><path class="cls-3" d="M250.01 333.34h83.33v83.34h-83.33z"/><path class="cls-7" d="M291.58 333.34h41.76v83.34h-41.76z"/><path class="cls-64" d="M291.58 333.34h41.76v83.34h-41.76z"/><path class="cls-8" d="M687.53 270.84h41.66v41.66h-41.66z"/><path class="cls-7" transform="rotate(-45 708.354 291.67)" d="M692.07 275.38h32.58v32.58h-32.58z"/></svg>