<?xml version="1.0" standalone="no"?>
<!DOCTYPE svg PUBLIC "-//W3C//DTD SVG 20010904//EN"
 "http://www.w3.org/TR/2001/REC-SVG-20010904/DTD/svg10.dtd">
<svg version="1.0" xmlns="http://www.w3.org/2000/svg"
 width="700.000000pt" height="700.000000pt" viewBox="0 0 700.000000 700.000000"
 preserveAspectRatio="xMidYMid meet">
<metadata>
Created by potrace 1.14, written by Peter Selinger 2001-2017
</metadata>
<g transform="translate(0.000000,700.000000) scale(0.100000,-0.100000)"
fill="#000000" stroke="none">
<path d="M3438 5559 l-3 -1440 -46 163 c-335 1178 -1093 1873 -2225 2039 -326
48 -788 41 -1087 -16 -38 -7 -70 -15 -72 -17 -8 -8 35 -236 71 -380 172 -684
534 -1276 1008 -1647 336 -263 757 -438 1216 -505 58 -9 191 -21 296 -27 209
-13 465 -3 707 28 70 8 130 14 132 11 3 -3 4 -571 3 -1264 l-3 -1259 -29 110
c-316 1202 -1090 1929 -2234 2100 -336 50 -806 42 -1107 -18 l-60 -12 3 -40
c6 -74 62 -332 102 -469 59 -202 133 -389 231 -586 439 -879 1168 -1374 2149
-1461 228 -20 717 -1 913 36 l37 7 0 -456 0 -456 60 0 60 0 0 456 0 457 33 -7
c139 -28 331 -41 632 -40 347 0 441 9 710 69 377 84 755 270 1045 513 442 371
778 940 945 1600 40 159 77 364 67 374 -9 8 -150 32 -292 50 -133 16 -610 16
-745 0 -659 -80 -1171 -309 -1584 -707 -341 -328 -602 -788 -751 -1322 -23
-81 -46 -159 -50 -173 -5 -14 -9 543 -9 1238 -1 1212 0 1262 17 1262 10 0 68
-7 129 -15 411 -54 849 -39 1213 41 374 83 735 255 1029 492 453 363 807 953
975 1620 36 144 79 372 71 380 -18 18 -286 51 -503 62 -714 35 -1380 -145
-1865 -502 -246 -182 -423 -369 -601 -636 -187 -282 -335 -621 -437 -1007
l-24 -90 -3 1443 -2 1442 -60 0 -60 0 -2 -1441z"/>
</g>
</svg>
